<svg width="33" height="32" viewBox="0 0 33 32" fill="none" xmlns="http://www.w3.org/2000/svg">
<circle cx="16.5435" cy="16" r="16" fill="#576FD7"/>
<path fill-rule="evenodd" clip-rule="evenodd" d="M16.7101 8.13496H10.9101C10.2695 8.13496 9.75015 8.6528 9.75015 9.29159C9.75015 9.93038 10.2695 10.4482 10.9101 10.4482H16.7101C17.3508 10.4482 17.8701 9.93038 17.8701 9.29159C17.8701 8.6528 17.3508 8.13496 16.7101 8.13496ZM10.9101 6.40002C9.30852 6.40002 8.01015 7.69462 8.01015 9.29159C8.01015 10.8886 9.30852 12.1832 10.9101 12.1832H16.3965C16.4999 12.1832 16.5516 12.3077 16.4786 12.3806L12.8448 16.0038C11.7122 17.1331 11.7122 18.9639 12.8448 20.0931C13.245 20.4923 13.7332 20.7503 14.2472 20.8673C14.334 20.887 14.3747 20.9916 14.324 21.0646C14 21.5314 13.8101 22.0978 13.8101 22.7085C13.8101 24.3054 15.1085 25.6 16.7101 25.6H22.5101C24.1118 25.6 25.4101 24.3054 25.4101 22.7085C25.4101 21.1115 24.1118 19.8169 22.5101 19.8169H17.5031C17.3997 19.8169 17.348 19.6923 17.421 19.6194L21.0472 16.0038C22.1797 14.8746 22.1797 13.0438 21.0472 11.9146C20.5418 11.4107 19.8963 11.1316 19.2358 11.0774C19.1396 11.0695 19.0839 10.9558 19.1369 10.8753C19.4361 10.4204 19.6101 9.87626 19.6101 9.29159C19.6101 7.69462 18.3118 6.40002 16.7101 6.40002H10.9101ZM16.7101 21.5518C16.0695 21.5518 15.5501 22.0697 15.5501 22.7085C15.5501 23.3472 16.0695 23.8651 16.7101 23.8651H22.5101C23.1508 23.8651 23.6701 23.3472 23.6701 22.7085C23.6701 22.0697 23.1508 21.5518 22.5101 21.5518H16.7101ZM14.0751 17.2306L18.1763 13.1413C18.6293 12.6896 19.3638 12.6896 19.8168 13.1413C20.2698 13.593 20.2698 14.3254 19.8168 14.7771L15.7156 18.8663C15.2626 19.318 14.5281 19.318 14.0751 18.8663C13.6221 18.4147 13.6221 17.6823 14.0751 17.2306Z" fill="white"/>
</svg>
