<svg width="24" height="20" viewBox="0 0 24 20" fill="none" xmlns="http://www.w3.org/2000/svg">
<path fill-rule="evenodd" clip-rule="evenodd" d="M11.0237 1.3582C11.2216 1.16554 11.2258 0.84899 11.0331 0.651159C10.8404 0.453329 10.5239 0.449137 10.3261 0.641796L1.08449 9.6418L0.716675 10L1.08449 10.3582L10.3261 19.3582C10.5239 19.5509 10.8404 19.5467 11.0331 19.3488C11.2258 19.151 11.2216 18.8345 11.0237 18.6418L2.66341 10.5H22.9969C23.273 10.5 23.4969 10.2761 23.4969 10C23.4969 9.72386 23.273 9.5 22.9969 9.5H2.66341L11.0237 1.3582ZM2.46006 9.69804L2.14999 10L2.46006 10.302V9.69804Z" fill="#555555"/>
</svg>
