<svg width="28" height="26" viewBox="0 0 28 26" fill="none" xmlns="http://www.w3.org/2000/svg">
<path d="M26.3404 23.4762V10.5238C26.3404 10.2872 26.2853 10.0539 26.1796 9.84234C26.0738 9.63075 25.9202 9.4467 25.7309 9.30476L15.0642 1.30476C14.8005 1.10694 14.4797 1 14.1499 1C13.8202 1 13.4994 1.10694 13.2357 1.30476L2.569 9.30476C2.37975 9.4467 2.22614 9.63075 2.12035 9.84234C2.01455 10.0539 1.95947 10.2872 1.95947 10.5238V23.4762C1.95947 23.8803 2.12002 24.2679 2.40579 24.5537C2.69156 24.8395 3.07914 25 3.48328 25H9.57852C9.98266 25 10.3702 24.8395 10.656 24.5537C10.9418 24.2679 11.1023 23.8803 11.1023 23.4762V18.9048C11.1023 18.5006 11.2629 18.113 11.5486 17.8273C11.8344 17.5415 12.222 17.381 12.6261 17.381H15.6738C16.0779 17.381 16.4655 17.5415 16.7513 17.8273C17.037 18.113 17.1976 18.5006 17.1976 18.9048V23.4762C17.1976 23.8803 17.3581 24.2679 17.6439 24.5537C17.9297 24.8395 18.3172 25 18.7214 25H24.8166C25.2208 25 25.6083 24.8395 25.8941 24.5537C26.1799 24.2679 26.3404 23.8803 26.3404 23.4762Z" stroke="#999999" stroke-width="2" stroke-linecap="round" stroke-linejoin="round"/>
</svg>
