<svg width="23" height="24" viewBox="0 0 23 24" fill="none" xmlns="http://www.w3.org/2000/svg">
<path fill-rule="evenodd" clip-rule="evenodd" d="M6.44034 7.00001C6.44034 4.23858 8.67892 2 11.4403 2C14.2018 2 16.4404 4.23858 16.4404 7.00001C16.4404 9.75577 14.211 11.9908 11.4574 12C11.4517 12 11.446 12 11.4403 12C11.4347 12 11.429 12 11.4233 12C8.66973 11.9908 6.44034 9.75577 6.44034 7.00001ZM7.47524 12.7695C5.64209 11.5073 4.44034 9.39399 4.44034 7.00001C4.44034 3.13401 7.57435 0 11.4403 0C15.3063 0 18.4404 3.13401 18.4404 7.00001C18.4404 9.39399 17.2386 11.5073 15.4055 12.7695C16.7148 13.2976 17.918 14.087 18.9357 15.1047C20.9236 17.0925 22.0404 19.7887 22.0404 22.6C22.0404 23.1523 21.5926 23.6 21.0404 23.6C20.4881 23.6 20.0404 23.1523 20.0404 22.6C20.0404 20.3191 19.1343 18.1317 17.5215 16.5189C15.9129 14.9103 13.7328 14.0048 11.4585 14C11.4524 14 11.4464 14 11.4403 14C11.4343 14 11.4283 14 11.4222 14C9.14791 14.0048 6.96776 14.9103 5.35922 16.5189C3.7464 18.1317 2.84033 20.3191 2.84033 22.6C2.84033 23.1523 2.39262 23.6 1.84033 23.6C1.28805 23.6 0.840332 23.1523 0.840332 22.6C0.840332 19.7887 1.95712 17.0925 3.94501 15.1047C4.96266 14.087 6.16593 13.2976 7.47524 12.7695Z" fill="#999999"/>
</svg>
