<svg width="32" height="32" viewBox="0 0 32 32" fill="none" xmlns="http://www.w3.org/2000/svg">
<circle cx="16" cy="16" r="15.5" fill="white" stroke="#F5F5F5"/>
<path fill-rule="evenodd" clip-rule="evenodd" d="M16.1667 8.13496H10.3667C9.72602 8.13496 9.20667 8.6528 9.20667 9.29159C9.20667 9.93038 9.72602 10.4482 10.3667 10.4482H16.1667C16.8073 10.4482 17.3267 9.93038 17.3267 9.29159C17.3267 8.6528 16.8073 8.13496 16.1667 8.13496ZM10.3667 6.40002C8.76505 6.40002 7.46667 7.69462 7.46667 9.29159C7.46667 10.8886 8.76505 12.1832 10.3667 12.1832H15.8531C15.9564 12.1832 16.0082 12.3077 15.9351 12.3806L12.3013 16.0038C11.1688 17.1331 11.1688 18.9639 12.3013 20.0931C12.7016 20.4923 13.1897 20.7503 13.7037 20.8673C13.7905 20.887 13.8312 20.9916 13.7806 21.0646C13.4565 21.5314 13.2667 22.0978 13.2667 22.7085C13.2667 24.3054 14.565 25.6 16.1667 25.6H21.9667C23.5683 25.6 24.8667 24.3054 24.8667 22.7085C24.8667 21.1115 23.5683 19.8169 21.9667 19.8169H16.9596C16.8563 19.8169 16.8045 19.6923 16.8776 19.6194L20.5037 16.0038C21.6362 14.8746 21.6362 13.0438 20.5037 11.9146C19.9984 11.4107 19.3529 11.1316 18.6923 11.0774C18.5961 11.0695 18.5405 10.9558 18.5934 10.8753C18.8926 10.4204 19.0667 9.87626 19.0667 9.29159C19.0667 7.69462 17.7683 6.40002 16.1667 6.40002H10.3667ZM16.1667 21.5518C15.526 21.5518 15.0067 22.0697 15.0067 22.7085C15.0067 23.3472 15.526 23.8651 16.1667 23.8651H21.9667C22.6073 23.8651 23.1267 23.3472 23.1267 22.7085C23.1267 22.0697 22.6073 21.5518 21.9667 21.5518H16.1667ZM13.5317 17.2306L17.6329 13.1413C18.0859 12.6896 18.8203 12.6896 19.2734 13.1413C19.7264 13.593 19.7264 14.3254 19.2734 14.7771L15.1721 18.8663C14.7191 19.318 13.9847 19.318 13.5317 18.8663C13.0786 18.4147 13.0786 17.6823 13.5317 17.2306Z" fill="#576FD7"/>
</svg>
