<svg width="38" height="26" viewBox="0 0 38 26" fill="none" xmlns="http://www.w3.org/2000/svg">
<path d="M36.0868 15.8481L31.2426 18.497C30.7119 18.7872 30.0471 18.5435 29.8297 17.9791L24.8775 5.12335C24.6879 4.63117 24.9132 4.07635 25.3922 3.85565L30.6035 1.45468C31.1347 1.2099 31.7618 1.47141 31.9617 2.02115L36.5468 14.629C36.7156 15.0932 36.5202 15.6111 36.0868 15.8481Z" stroke="#999999" stroke-width="2"/>
<path d="M29.0682 17.989L24.9843 6.80777C24.8922 6.5556 24.7046 6.35041 24.4574 6.24587C21.2848 4.90454 15.3422 3.51973 14.1903 7.67669C12.6903 13.0902 16.1403 14.1729 18.5403 10.3835C20.3736 7.48879 25.4526 14.235 28.084 18.4633C28.2693 18.7611 28.6811 18.8134 28.9339 18.5701C29.0898 18.4201 29.1424 18.1922 29.0682 17.989Z" stroke="#999999" stroke-width="2"/>
<path d="M12.8752 5.42735L12.0833 5.47065C11.6423 5.49477 11.2694 5.80527 11.1658 6.23457L8.7635 16.1889C8.68638 16.5084 8.77245 16.8473 8.9928 17.0912C11.7827 20.1802 13.9095 22.2034 15.3678 23.4403C16.6912 24.5626 18.4033 25.0252 20.1329 24.8861C32.7803 23.8693 25.7297 16.4845 23.1903 13.0902C21.1818 10.4054 19.9687 10.2172 19.5271 10.4942C19.4642 10.5337 19.4205 10.5968 19.3811 10.6598C18.0749 12.7454 16.5814 13.2707 15.9903 13.2707C12.3347 13.2707 12.8345 9.68245 13.9066 6.9375C14.1895 6.21315 13.6517 5.38489 12.8752 5.42735Z" stroke="#999999" stroke-width="2"/>
<path d="M10.402 2.72076L5.29762 1.28361C4.74886 1.1291 4.18217 1.46391 4.05272 2.01911L1.03834 14.9477C0.924875 15.4344 1.18806 15.9301 1.65474 16.1087L6.39066 17.9215C6.9495 18.1354 7.56984 17.8139 7.7173 17.234L11.1001 3.92976C11.2338 3.40412 10.924 2.86775 10.402 2.72076Z" stroke="#999999" stroke-width="2"/>
</svg>
